<svg width="64" height="74" viewBox="0 0 64 74" fill="none" xmlns="http://www.w3.org/2000/svg">
<g clip-path="url(#clip0_74_87)">
<path d="M31.6688 36.6741L39.4722 32.1829V41.1653L31.6688 45.6565V36.6741Z" fill="#CC7400" stroke="#CC7400" stroke-width="2" stroke-linejoin="bevel"/>
<path d="M31.6688 63.6213L39.4722 59.1301V68.1125L31.6688 72.6038V63.6213Z" fill="#DE7F00" stroke="#DE7F00" stroke-width="2" stroke-linejoin="bevel"/>
<path d="M31.6688 54.6389L39.4722 50.1477V59.1301L31.6688 63.6213V54.6389Z" fill="#D17200" stroke="#D17200" stroke-width="2" stroke-linejoin="bevel"/>
<path d="M31.6688 45.6565L39.4722 41.1653V50.1477L31.6688 54.6389V45.6565Z" fill="#E38900" stroke="#E38900" stroke-width="2" stroke-linejoin="bevel"/>
<path d="M55.079 23.2004L62.8824 18.7092V27.6917L55.079 32.1829V23.2004Z" fill="#C97900" stroke="#C97900" stroke-width="2" stroke-linejoin="bevel"/>
<path d="M55.079 50.1477L62.8824 45.6565V54.6389L55.079 59.1301V50.1477Z" fill="#C96E00" stroke="#C96E00" stroke-width="2" stroke-linejoin="bevel"/>
<path d="M55.079 41.1653L62.8824 36.6741V45.6565L55.079 50.1477V41.1653Z" fill="#CC7400" stroke="#CC7400" stroke-width="2" stroke-linejoin="bevel"/>
<path d="M55.079 32.1829L62.8824 27.6917V36.6741L55.079 41.1653V32.1829ZM47.2756 27.6917L55.079 23.2004V32.1829L47.2756 36.6741V27.6917Z" fill="#E68A00"/>
<path d="M55.079 32.1829L62.8824 27.6917V36.6741L55.079 41.1653V32.1829ZM55.079 32.1829V23.2004L47.2756 27.6917V36.6741L55.079 32.1829Z" stroke="#E68A00" stroke-width="2" stroke-linejoin="bevel"/>
<path d="M47.2756 54.6389L55.079 50.1477V59.1301L47.2756 63.6213V54.6389Z" fill="#D68100" stroke="#D68100" stroke-width="2" stroke-linejoin="bevel"/>
<path d="M47.2756 45.6565L55.079 41.1653V50.1477L47.2756 54.6389V45.6565Z" fill="#C96E00" stroke="#C96E00" stroke-width="2" stroke-linejoin="bevel"/>
<path d="M47.2756 36.6741L55.079 32.1829V41.1653L47.2756 45.6565V36.6741Z" fill="#DB7D00" stroke="#DB7D00" stroke-width="2" stroke-linejoin="bevel"/>
<path d="M39.4722 32.1829L47.2756 27.6917V36.6741L39.4722 41.1653V32.1829Z" fill="#D18100" stroke="#D18100" stroke-width="2" stroke-linejoin="bevel"/>
<path d="M39.4722 59.1301L47.2756 54.6389V63.6213L39.4722 68.1125V59.1301Z" fill="#C47000" stroke="#C47000" stroke-width="2" stroke-linejoin="bevel"/>
<path d="M39.4722 50.1477L47.2756 45.6565V54.6389L39.4722 59.1301V50.1477Z" fill="#D17E00" stroke="#D17E00" stroke-width="2" stroke-linejoin="bevel"/>
<path d="M39.4722 41.1653L47.2756 36.6741V45.6565L39.4722 50.1477V41.1653Z" fill="#CC7400" stroke="#CC7400" stroke-width="2" stroke-linejoin="bevel"/>
<path d="M0.456024 18.7092L8.25943 23.2004V32.1829L0.456024 27.6917V18.7092ZM0.456024 45.6565L8.25943 50.1477V59.1301L0.456024 54.6389V45.6565Z" fill="#FC9800" stroke="#FC9800" stroke-width="2" stroke-linejoin="bevel"/>
<path d="M0.456024 36.6741L8.25943 41.1653V50.1477L0.456024 45.6565V36.6741Z" fill="#FFAA00" stroke="#FFAA00" stroke-width="2" stroke-linejoin="bevel"/>
<path d="M0.456024 27.6917L8.25943 32.1829V41.1653L0.456024 36.6741V27.6917Z" fill="#FFBD1E" stroke="#FFBD1E" stroke-width="2" stroke-linejoin="bevel"/>
<path d="M23.8662 32.1829L31.6697 36.6741V45.6565L23.8662 41.1653V32.1829Z" fill="#FC9800" stroke="#FC9800" stroke-width="2" stroke-linejoin="bevel"/>
<path d="M23.8662 59.1301L31.6697 63.6213V72.6038L23.8662 68.1125V59.1301Z" fill="#FFAA00" stroke="#FFAA00" stroke-width="2" stroke-linejoin="bevel"/>
<path d="M23.8662 50.1477L31.6697 54.6389V63.6213L23.8662 59.1301V50.1477Z" fill="#FFAA00" stroke="#FFAA00" stroke-width="2" stroke-linejoin="bevel"/>
<path d="M23.8662 41.1653L31.6697 45.6565V54.6389L23.8662 50.1477V41.1653ZM16.0628 27.6917L23.8662 32.1829V41.1653L16.0628 36.6741V27.6917Z" fill="#FFAA00"/>
<path d="M23.8662 41.1653L31.6697 45.6565V54.6389L23.8662 50.1477V41.1653ZM23.8662 41.1653V32.1829L16.0628 27.6917V36.6741L23.8662 41.1653Z" stroke="#FFAA00" stroke-width="2" stroke-linejoin="bevel"/>
<path d="M16.0628 54.6389L23.8662 59.1301V68.1125L16.0628 63.6213V54.6389Z" fill="#FC9800" stroke="#FC9800" stroke-width="2" stroke-linejoin="bevel"/>
<path d="M16.0628 45.6565L23.8662 50.1477V59.1301L16.0628 54.6389V45.6565Z" fill="#FFBD1E" stroke="#FFBD1E" stroke-width="2" stroke-linejoin="bevel"/>
<path d="M16.0628 36.6741L23.8662 41.1653V50.1477L16.0628 45.6565V36.6741Z" fill="#FFB304" stroke="#FFB304" stroke-width="2" stroke-linejoin="bevel"/>
<path d="M8.25943 23.2004L16.0628 27.6917V36.6741L8.25943 32.1829V23.2004Z" fill="#FFAA00" stroke="#FFAA00" stroke-width="2" stroke-linejoin="bevel"/>
<path d="M8.25943 50.1477L16.0628 54.6389V63.6213L8.25943 59.1301V50.1477Z" fill="#FFB304" stroke="#FFB304" stroke-width="2" stroke-linejoin="bevel"/>
<path d="M8.25943 41.1653L16.0628 45.6565V54.6389L8.25943 50.1477V41.1653Z" fill="#FFAA00" stroke="#FFAA00" stroke-width="2" stroke-linejoin="bevel"/>
<path d="M8.25943 32.1829L16.0628 36.6741V45.6565L8.25943 41.1653V32.1829Z" fill="#FC9800" stroke="#FC9800" stroke-width="2" stroke-linejoin="bevel"/>
<path d="M31.6688 0.744385L39.4722 5.2356L31.6688 9.72681L23.8654 5.2356L31.6688 0.744385ZM8.25857 14.218L16.062 18.7092L8.25857 23.2004L0.455162 18.7092L8.25857 14.218Z" fill="#FFE929" stroke="#FFE929" stroke-width="2" stroke-linejoin="bevel"/>
<path d="M16.062 9.72681L23.8654 14.218L16.062 18.7092L8.25857 14.218L16.062 9.72681Z" fill="#FFE65E" stroke="#FFE65E" stroke-width="2" stroke-linejoin="bevel"/>
<path d="M23.8654 5.2356L31.6688 9.72681L23.8654 14.218L16.062 9.72681L23.8654 5.2356ZM55.079 14.218L62.8824 18.7092L55.079 23.2004L47.2756 18.7092L55.079 14.218Z" fill="#FFDB2E" stroke="#FFDB2E" stroke-width="2" stroke-linejoin="bevel"/>
<path d="M31.6688 27.6917L39.4722 32.1829L31.6688 36.6741L23.8654 32.1829L31.6688 27.6917Z" fill="#FFE65E" stroke="#FFE65E" stroke-width="2" stroke-linejoin="bevel"/>
<path d="M39.4722 23.2004L47.2756 27.6917L39.4722 32.1829L31.6688 27.6917L39.4722 23.2004Z" fill="#FFDB2E" stroke="#FFDB2E" stroke-width="2" stroke-linejoin="bevel"/>
<path d="M47.2756 18.7092L55.079 23.2004L47.2756 27.6917L39.4722 23.2004L47.2756 18.7092Z" fill="#FFE65E" stroke="#FFE65E" stroke-width="2" stroke-linejoin="bevel"/>
<path d="M47.2756 9.72681L55.079 14.218L47.2756 18.7092L39.4722 14.218L47.2756 9.72681Z" fill="#FFE36A" stroke="#FFE36A" stroke-width="2" stroke-linejoin="bevel"/>
<path d="M23.8654 23.2004L31.6688 27.6917L23.8654 32.1829L16.062 27.6917L23.8654 23.2004Z" fill="#FFDB2E" stroke="#FFDB2E" stroke-width="2" stroke-linejoin="bevel"/>
<path d="M31.6688 18.7092L39.4722 23.2004L31.6688 27.6917L23.8654 23.2004L31.6688 18.7092Z" fill="#FFE36A" stroke="#FFE36A" stroke-width="2" stroke-linejoin="bevel"/>
<path d="M39.4722 14.218L47.2756 18.7092L39.4722 23.2004L31.6688 18.7092L39.4722 14.218Z" fill="#FFDB2E" stroke="#FFDB2E" stroke-width="2" stroke-linejoin="bevel"/>
<path d="M39.4722 5.2356L47.2756 9.72681L39.4722 14.218L31.6688 9.72681L39.4722 5.2356Z" fill="#FFE65E" stroke="#FFE65E" stroke-width="2" stroke-linejoin="bevel"/>
<path d="M16.062 18.7092L23.8654 23.2004L16.062 27.6917L8.25857 23.2004L16.062 18.7092Z" fill="#FFE929" stroke="#FFE929" stroke-width="2" stroke-linejoin="bevel"/>
<path d="M23.8654 14.218L31.6688 18.7092L23.8654 23.2004L16.062 18.7092L23.8654 14.218Z" fill="#FFE65E" stroke="#FFE65E" stroke-width="2" stroke-linejoin="bevel"/>
<path d="M31.6688 9.72681L39.4722 14.218L31.6688 18.7092L23.8654 14.218L31.6688 9.72681Z" fill="#FFE929" stroke="#FFE929" stroke-width="2" stroke-linejoin="bevel"/>
</g>
<defs>
<clipPath id="clip0_74_87">
<rect width="63" height="73" fill="white" transform="translate(0.1688 0.174072)"/>
</clipPath>
</defs>
</svg>
