<svg width="68" height="49" viewBox="0 0 68 49" fill="none" xmlns="http://www.w3.org/2000/svg">
<g clip-path="url(#clip0_74_213)">
<path d="M56.9771 0.236816L66.4452 16.2368L56.9771 32.2369L66.4452 48.2368H47.5089L38.0408 32.2369L28.5726 48.2368L19.1045 32.2369H38.0408L47.5089 16.2368H28.5726H9.63635L0.168213 0.236816H19.1045H38.0408H56.9771Z" fill="white"/>
<path d="M47.5089 48.2365L38.0408 32.2366H56.9771L47.5089 48.2365Z" fill="#8DCCFC"/>
<path d="M66.4456 48.2372H47.5093L56.9775 32.2373L66.4456 48.2372Z" fill="#47A9F1"/>
<path d="M19.1044 32.2366L28.5724 48.2365L38.0405 32.2366H19.1044Z" fill="#47A9F1"/>
<path d="M38.0408 32.237L47.5089 16.2371L56.9771 32.237H38.0408Z" fill="#6EBEFF"/>
<path d="M66.4456 16.2364L56.9775 32.2363L47.5093 16.2364H66.4456Z" fill="#47A9F1"/>
<path d="M66.4456 16.2368L56.9775 0.236816L47.5093 16.2368H66.4456Z" fill="#2890DB"/>
<path d="M56.9771 0.236816H38.0408L47.5089 16.2368L56.9771 0.236816Z" fill="#47A9F1"/>
<path d="M28.5726 16.2368H47.5089L38.0406 0.236816L28.5726 16.2368Z" fill="#6EBEFF"/>
<path d="M28.5724 16.2368L19.1044 0.236816H38.0405L28.5724 16.2368Z" fill="#8DCCFC"/>
<path d="M28.5723 16.2368H9.63611L19.1042 0.236816L28.5723 16.2368Z" fill="#47A9F1"/>
<path d="M0.168213 0.236816H19.1045L9.63635 16.2368L0.168213 0.236816Z" fill="#6EBEFF"/>
<path opacity="0.4" d="M28.5726 16.2371H47.5089L38.0406 32.237L28.5726 16.2371Z" fill="#75C1FF"/>
</g>
<defs>
<clipPath id="clip0_74_213">
<rect width="67" height="48" fill="white" transform="translate(0.168213 0.236816)"/>
</clipPath>
</defs>
</svg>
