<svg width="69" height="69" viewBox="0 0 69 69" fill="none" xmlns="http://www.w3.org/2000/svg">
<mask id="mask0_9_2" style="mask-type:alpha" maskUnits="userSpaceOnUse" x="0" y="0" width="69" height="69">
<path d="M61.4057 7.77521C55.0021 1.3963 45.7946 0.68335 34.5428 0.68335C23.2769 0.68335 14.0555 1.40452 7.65454 7.80067C1.25453 14.1942 0.605347 23.4007 0.605347 34.6538C0.605347 45.9086 1.25453 55.1182 7.65718 61.5139C14.0577 67.9109 23.278 68.5583 34.5428 68.5583C45.8076 68.5583 55.0266 67.9109 61.427 61.5139C67.8293 55.1168 68.4803 45.9086 68.4803 34.6538C68.4803 23.3862 67.8223 14.1698 61.4057 7.77521Z" fill="#3D96FE"/>
</mask>
<g mask="url(#mask0_9_2)">
<path d="M68.4803 0.68335H0.605347V68.5583H68.4803V0.68335Z" fill="#30A9FE"/>
</g>
<path d="M43.052 54.4291C43.6945 54.6046 43.6101 55.5273 42.9458 55.5833C37.033 56.0775 25.62 55.5641 20.6798 45.3395C20.1159 47.7426 20.5933 50.2365 21.2339 52.1649C21.4442 52.798 20.5895 53.2284 20.1807 52.6975C16.6456 48.1093 11.4165 38.6376 17.6104 28.0598C15.1148 28.8106 13.0908 30.3664 11.6995 31.7234C11.2279 32.1828 10.4497 31.679 10.715 31.0806C12.8864 26.1836 18.5969 17.2098 31.3166 17.1056C29.8016 15.7177 28.0231 14.8974 26.4375 14.4109C25.7791 14.2102 25.9069 13.2644 26.5966 13.2547C31.9729 13.1756 41.136 14.5518 48.0904 23.4311C48.6464 21.0626 48.1905 18.6054 47.5617 16.6867C47.3534 16.0497 48.2122 15.6193 48.617 16.1559C52.0185 20.6959 56.8347 29.8936 50.7117 40.3478C53.5394 39.4984 55.9073 37.7303 57.4145 36.3752C57.8842 35.9525 58.6112 36.439 58.3814 37.0219C56.5146 41.7317 50.9377 51.5915 37.0054 51.3021C38.8349 52.9756 41.1498 53.9098 43.052 54.4291ZM34.3034 28.6775C31.0494 28.6775 28.4083 31.2718 28.4083 34.4681C28.4083 37.6647 31.0494 40.259 34.3034 40.259C37.5577 40.259 40.1988 37.6647 40.1988 34.4681C40.1988 31.2718 37.5577 28.6775 34.3034 28.6775Z" fill="white"/>
</svg>
