<svg width="53" height="62" viewBox="0 0 53 62" fill="none" xmlns="http://www.w3.org/2000/svg">
<path d="M6.6438 30.7986L26.3309 0.174133L46.0181 30.7986L26.3309 61.423L6.6438 30.7986Z" fill="#89B8FF"/>
<path d="M26.3313 61.423V30.7986H11.019L26.3313 61.423Z" fill="#2E5FDC"/>
<path d="M26.3311 61.423V30.7986H41.6433L26.3311 61.423Z" fill="#1D2DC6"/>
<path d="M26.3313 30.7986V0.174133L11.019 30.7986H26.3313Z" fill="#4576F3"/>
<path d="M26.3311 30.7986V0.174133L41.6433 30.7986H26.3311Z" fill="#3346F6"/>
<path d="M26.3312 61.423L0.081665 30.7986H13.2064L26.3312 61.423Z" fill="#4486EB"/>
<path d="M0.081665 30.7985L26.3312 0.174072L13.2064 30.7985H0.081665Z" fill="#89B8FF"/>
<path d="M52.5806 30.7986L26.3311 61.423L39.4558 30.7986H52.5806Z" fill="#0F1D9D"/>
<path d="M26.3311 0.174133L52.5806 30.7986H39.4558L26.3311 0.174133Z" fill="#213DD1"/>
</svg>
