<svg width="71" height="71" viewBox="0 0 71 71" fill="none" xmlns="http://www.w3.org/2000/svg">
<g clip-path="url(#clip0_74_266)">
<path d="M70.9542 35.5975C70.9542 54.8475 55.2042 70.5975 35.9542 70.5975C16.7042 70.5975 0.954224 54.8475 0.954224 35.5975C0.954224 16.3475 16.7042 0.597534 35.9542 0.597534C55.2042 0.597534 70.9542 16.3475 70.9542 35.5975Z" fill="#8DC63F"/>
<path d="M68.3292 35.5975C68.3292 53.535 53.8917 67.9725 35.9542 67.9725C18.0167 67.9725 3.57922 53.535 3.57922 35.5975C3.57922 17.66 18.0167 3.22253 35.9542 3.22253C53.8917 3.22253 68.3292 17.66 68.3292 35.5975Z" fill="#F9E988"/>
<path d="M36.3917 5.41003C38.5792 4.97253 40.7667 4.97253 42.5167 5.41003C44.7042 5.84753 46.4542 6.28503 48.6417 7.16003C50.3917 8.03503 52.1417 9.34753 53.4542 11.0975C55.2042 12.41 56.5167 13.7225 58.2667 15.035C60.0167 16.3475 61.3292 18.0975 62.2042 19.8475C63.5167 21.5975 64.3917 23.3475 64.8292 25.535C66.5792 29.4725 66.5792 33.8475 66.1417 37.785C65.7042 33.8475 64.3917 29.91 63.0792 26.41C62.2042 24.2225 61.7667 22.4725 60.8917 20.7225C60.0167 18.9725 58.7042 17.2225 57.8292 15.4725C56.5167 13.7225 55.2042 12.41 53.4542 11.0975C51.7042 9.78503 49.9542 8.91003 48.2042 8.47253C46.4542 7.59753 44.7042 7.16003 42.5167 6.72253C40.3292 6.28503 38.5792 5.84753 36.3917 5.41003Z" fill="white"/>
<path d="M52.5792 23.785C49.9542 22.91 47.7667 22.035 45.1417 21.16C44.7042 20.285 44.2667 19.41 43.3917 18.9725C41.2042 17.66 38.5792 17.66 35.9542 18.535C33.3292 17.66 30.2667 17.66 27.6417 18.0975C5.32922 24.2225 18.0167 39.0975 9.70422 54.41C16.7042 64.4725 29.3917 69.7225 41.6417 67.535C41.6417 67.535 35.5167 52.66 49.5167 45.2225C60.8917 39.535 69.2042 28.5975 52.5792 23.785Z" fill="#8BC53F"/>
<path d="M55.2042 33.8475C55.2042 34.7225 54.7667 35.16 53.8917 35.16C53.0167 35.16 52.5792 34.7225 52.5792 33.8475C52.5792 32.9725 53.0167 32.535 53.8917 32.535C54.3292 32.535 55.2042 32.9725 55.2042 33.8475Z" fill="white"/>
<path d="M35.9542 18.535C39.0167 18.9725 42.0792 20.285 45.1417 21.5975C43.8292 17.66 39.4542 17.2225 35.9542 18.535Z" fill="#009345"/>
<path d="M37.7042 27.7225C37.7042 31.2225 35.0792 33.8475 31.5792 33.8475C28.0792 33.8475 25.0167 31.2225 25.0167 27.7225C25.0167 24.2225 27.6417 21.5975 31.1417 21.5975C35.0792 21.5975 37.7042 24.2225 37.7042 27.7225Z" fill="white"/>
<path d="M35.9542 27.7225C35.9542 30.3475 34.2042 32.0975 31.5792 32.0975C28.9542 32.0975 27.2042 30.3475 27.2042 27.7225C27.2042 25.0975 28.9542 23.3475 31.5792 23.3475C34.2042 23.3475 35.9542 25.0975 35.9542 27.7225Z" fill="#58595B"/>
<path d="M60.0167 36.4725C54.3292 40.41 47.7667 42.5975 40.7667 42.5975C36.8292 42.5975 36.3917 38.66 33.7667 40.41C31.1417 42.5975 28.0792 43.91 24.5792 43.91C18.8917 43.91 14.0792 39.535 13.2042 33.8475C13.2042 40.8475 11.8917 47.41 9.26672 53.9725C16.2667 64.4725 28.9542 69.7225 41.6417 67.535C40.3292 57.91 48.6417 48.7225 53.4542 43.91C56.0792 41.7225 58.2667 39.0975 60.0167 36.4725Z" fill="#8BC53F"/>
<path d="M60.0167 36.91C58.2667 38.2225 56.5167 39.535 54.7667 40.41C53.0167 41.285 50.8292 42.16 48.6417 42.5975C46.4542 43.035 44.2667 43.4725 42.0792 43.4725C39.8917 43.4725 37.7042 42.5975 36.3917 40.8475C38.1417 41.7225 40.3292 42.16 42.0792 42.16C44.2667 42.16 46.0167 42.16 48.2042 41.7225C50.3917 41.285 52.1417 40.8475 54.3292 39.9725C56.5167 39.0975 58.2667 38.2225 60.0167 36.91Z" fill="#58595B"/>
</g>
<defs>
<clipPath id="clip0_74_266">
<rect width="70" height="70" fill="white" transform="translate(0.954224 0.597534)"/>
</clipPath>
</defs>
</svg>
