<svg width="61" height="63" viewBox="0 0 61 63" fill="none" xmlns="http://www.w3.org/2000/svg">
<path d="M38.0588 45.095C38.4255 44.8422 38.9331 45.0043 39.0836 45.4228L44.7841 61.2691C44.9672 61.7787 44.5054 62.2854 43.9789 62.1526L22.9906 56.8533C22.4261 56.7109 22.2922 55.9724 22.771 55.6421L38.0588 45.095Z" fill="url(#paint0_linear_74_132)"/>
<path d="M41.7403 41.5975C41.7139 41.5243 41.7004 41.447 41.7004 41.3693V25.399C41.7004 24.9471 41.2643 24.6226 40.8297 24.7506L22.8453 30.0471C22.4104 30.1752 21.9745 29.8506 21.9745 29.3987V19.0776C21.9745 18.8666 22.0734 18.6677 22.2417 18.5399L45.678 0.741279C46.0036 0.493923 46.4736 0.588378 46.6776 0.942255L60.8352 25.5035C60.9353 25.6775 60.953 25.8869 60.883 26.0751L48.9633 58.1508C48.7435 58.7424 47.902 58.7381 47.6884 58.1439L41.7403 41.5975Z" fill="url(#paint1_linear_74_132)"/>
<path d="M15.9734 2.12554C16.0866 2.01508 16.235 1.94757 16.3929 1.93474L38.0238 0.176591C38.6994 0.121649 39.0292 0.979491 38.4897 1.38855L20.0526 15.3662C19.882 15.4956 19.66 15.537 19.454 15.4778L7.31302 11.9901C6.81362 11.8466 6.65494 11.2197 7.02626 10.8573L15.9734 2.12554Z" fill="url(#paint2_linear_74_132)"/>
<path d="M3.93364 15.4996C3.98536 15.0872 4.39464 14.8185 4.79522 14.9339L17.6623 18.6415C17.9526 18.7252 18.1523 18.9899 18.1523 19.2911V34.302C18.1523 34.7541 18.5886 35.0787 19.0234 34.9504L36.8833 29.6773C37.3179 29.549 37.7542 29.8735 37.7542 30.3254V39.8603C37.7542 40.0816 37.6455 40.289 37.4631 40.4154L17.4311 54.2915C17.1698 54.4725 16.8175 54.4484 16.5837 54.2333L1.14347 40.027C0.982644 39.8791 0.903348 39.6628 0.930492 39.4463L3.93364 15.4996Z" fill="url(#paint3_linear_74_132)"/>
<defs>
<linearGradient id="paint0_linear_74_132" x1="48.4256" y1="11.799" x2="-0.673203" y2="60.5645" gradientUnits="userSpaceOnUse">
<stop offset="0.015625" stop-color="#3294FF"/>
<stop offset="1" stop-color="#005BBE"/>
</linearGradient>
<linearGradient id="paint1_linear_74_132" x1="48.4252" y1="11.7991" x2="-0.67356" y2="60.5646" gradientUnits="userSpaceOnUse">
<stop offset="0.015625" stop-color="#3294FF"/>
<stop offset="1" stop-color="#005BBE"/>
</linearGradient>
<linearGradient id="paint2_linear_74_132" x1="48.4252" y1="11.7991" x2="-0.673588" y2="60.5646" gradientUnits="userSpaceOnUse">
<stop offset="0.015625" stop-color="#3294FF"/>
<stop offset="1" stop-color="#005BBE"/>
</linearGradient>
<linearGradient id="paint3_linear_74_132" x1="48.4254" y1="11.7991" x2="-0.673421" y2="60.5646" gradientUnits="userSpaceOnUse">
<stop offset="0.015625" stop-color="#3294FF"/>
<stop offset="1" stop-color="#005BBE"/>
</linearGradient>
</defs>
</svg>
